<?xml version="1.0" encoding="utf-8"?>
<!-- Generator: Adobe Illustrator 22.0.0, SVG Export Plug-In . SVG Version: 6.00 Build 0)  -->
<svg version="1.1" id="Capa_1" xmlns="http://www.w3.org/2000/svg" xmlns:xlink="http://www.w3.org/1999/xlink" x="0px" y="0px"
	 viewBox="0 0 512 512" style="enable-background:new 0 0 512 512;" xml:space="preserve">
<style type="text/css">
	.st0{fill:#0098f6;}
	.st1{fill:#FFFFFF;}
</style>
<g>
	<g>
		<g>
			<path class="st0" d="M256,0C114.7,0,0,114.7,0,256s114.7,256,256,256s256-114.7,256-256S397.3,0,256,0z"/>
			<path class="st1" d="M292,338.4h-10.8V223.7c0-6.6-5.1-12.2-12.2-12.2H220c-6.6,0-12.2,5.1-12.2,12.2V249
				c0,6.6,5.1,12.2,12.2,12.2h9.8v77.7H220c-6.6,0-12.2,5.1-12.2,12.2v25.3c0,6.6,5.1,12.2,12.2,12.2H292c6.6,0,12.2-5.1,12.2-12.2
				V351C304.2,344,298.6,338.4,292,338.4z"/>
			<path class="st1" d="M227,167.1c0.9,1.9,1.9,3.7,2.8,5.1c0.9,1.4,2.3,2.8,3.3,4.2c1.4,1.4,2.8,2.8,4.7,4.2
				c1.4,0.9,3.3,2.3,5.6,2.8c1.9,0.9,3.7,1.4,6.1,1.9c2.3,0.5,4.2,0.5,6.1,0.5s4.2,0,6.1-0.5c1.9-0.5,3.7-0.9,5.1-1.9h0.5
				c1.9-0.9,3.7-1.9,5.6-3.3c1.4-0.9,2.8-2.3,4.2-3.7l0.5-0.5c1.4-1.4,2.3-2.8,3.3-4.2c0.9-1.4,1.9-2.8,2.3-4.7c0-0.5,0-0.5,0.5-0.9
				c0.9-1.9,1.4-4.2,1.9-6.1s0.5-4.2,0.5-6.1c0-1.9,0-4.2-0.5-6.1c-0.5-1.9-0.9-3.7-1.9-6.1c-1.4-3.3-3.3-6.1-5.6-8.4
				c-0.5-0.5-0.5-0.5-0.9-0.9c-1.4-1.4-2.8-2.3-4.7-3.7c-1.9-0.9-3.3-1.9-5.1-2.8c-1.9-0.9-3.7-1.4-5.6-1.9
				c-2.3-0.5-4.2-0.5-6.1-0.5c-1.9,0-4.2,0-6.1,0.5s-3.7,0.9-5.6,1.9h-0.5c-1.9,0.9-3.7,1.9-5.1,2.8c-1.9,1.4-3.3,2.3-4.7,3.7
				s-2.8,2.8-3.7,4.2c-0.9,1.4-1.9,3.3-2.8,5.1c-0.9,1.9-1.4,3.7-1.9,5.6c-0.5,2.3-0.5,4.2-0.5,6.1s0,4.2,0.5,6.1
				C225.6,163.3,226.5,165.2,227,167.1z"/>
		</g>
	</g>
</g>
</svg>
